<svg width="41" height="40" viewBox="0 0 41 40" fill="none" xmlns="http://www.w3.org/2000/svg">
<path d="M19.2767 0.00491714C18.0921 0.0649452 17.1456 0.174999 16.1752 0.365089C9.24991 1.71973 3.56321 6.60404 1.17408 13.2472C-0.962929 19.198 -0.152546 25.8371 3.35912 31.0976C4.52167 32.8405 5.99036 34.4352 7.58112 35.6818C8.00532 36.014 8.06935 36.064 8.32747 36.2481C11.2008 38.3071 14.5104 39.5576 18.0261 39.9098C18.7664 39.9838 19.1226 40.0019 20.017 39.9999C21.0575 39.9999 21.7118 39.9598 22.6082 39.8398C26.1639 39.3656 29.4655 37.9889 32.2788 35.8059C33.7615 34.6553 35.1262 33.2407 36.2207 31.7239C37.9715 29.2988 39.1501 26.5355 39.6863 23.6061C40.0465 21.6372 40.1085 19.6522 39.8764 17.6513C39.7744 16.7849 39.6063 15.8804 39.3842 15.02C38.1556 10.2418 35.2042 6.0878 31.1023 3.3545C28.1909 1.41558 24.9353 0.305058 21.3977 0.0409317C21.0235 0.0149193 19.5888 -0.0110893 19.2767 0.00491714ZM20.8174 2.01387C23.9689 2.16594 26.9243 3.09038 29.5975 4.76317C31.9647 6.24387 34.0196 8.34487 35.4583 10.758C37.4112 14.0296 38.2777 17.8013 37.9435 21.5831C37.6333 25.1028 36.2887 28.4644 34.0837 31.2297C31.8906 33.979 28.9512 36.018 25.5996 37.1165C23.1925 37.9049 20.6353 38.177 18.1161 37.9089C14.5764 37.5347 11.1928 36.104 8.47554 33.8329C7.84124 33.3027 6.99484 32.4783 6.4846 31.892C5.05392 30.2532 3.96741 28.4544 3.18904 26.4354C2.13854 23.7121 1.77237 20.6807 2.14054 17.7613C2.59075 14.1716 4.09947 10.83 6.51261 8.07674C6.99084 7.53048 7.86725 6.68008 8.47554 6.17184C11.9032 3.30848 16.3753 1.80177 20.8174 2.01387Z" fill="white"/>
<path d="M27.1904 5.41746C26.9163 5.45148 26.6401 5.59754 26.452 5.80764C26.35 5.9217 26.1519 6.25986 23.2485 11.2882C22.3021 12.927 22.226 13.0651 22.242 13.0811C22.258 13.0971 22.5962 13.2932 23.8088 13.9935C25.2034 14.7979 25.4536 14.942 25.4576 14.936C25.4656 14.926 26.0398 13.9295 28.2669 10.0717C28.9772 8.84108 29.5795 7.78058 29.6055 7.71655C29.8036 7.22431 29.6435 6.63003 29.2273 6.31789C29.1273 6.24385 28.0828 5.63356 27.8727 5.52751C27.6846 5.43147 27.4165 5.38945 27.1904 5.41746ZM27.5906 5.88768C27.7827 5.97972 28.0288 6.15981 28.1909 6.32589L28.3009 6.43794L28.1708 6.37991C27.8827 6.24985 27.6726 6.20783 27.4625 6.23785C27.1183 6.28587 26.8662 6.50998 26.5061 7.08625C26.416 7.22832 26.292 7.42241 26.2279 7.51645C26.1059 7.70254 25.8898 7.96466 25.8738 7.94866C25.8578 7.93065 26.1079 7.36838 26.332 6.91617C26.5741 6.42994 26.7462 6.14781 26.8962 5.98173C27.0523 5.81165 27.0923 5.79164 27.2704 5.79964C27.3985 5.80564 27.4465 5.81765 27.5906 5.88768Z" fill="white"/>
<path d="M17.5959 11.9306C17.3518 11.9846 17.1757 12.0826 16.9956 12.2687C16.8475 12.4208 16.8035 12.4868 16.3953 13.1972C16.1532 13.6194 15.9391 14.0015 15.9191 14.0476C15.8071 14.2997 15.791 14.6278 15.8751 14.898C15.9411 15.1041 16.0952 15.3362 16.2493 15.4602C16.3613 15.5483 26.1379 21.205 26.318 21.285C26.4341 21.335 26.6502 21.383 26.7762 21.383C26.9323 21.383 27.1704 21.325 27.3305 21.247C27.4406 21.193 27.5206 21.1329 27.6306 21.0229C27.7687 20.8848 27.8167 20.8128 28.2249 20.1024C28.6952 19.286 28.7532 19.174 28.7892 19.0059C28.8212 18.8558 28.8172 18.5977 28.7792 18.4537C28.7212 18.2275 28.6371 18.0855 28.451 17.9034C28.283 17.7353 28.2669 17.7253 26.8603 16.9149C24.9214 15.8004 20.6013 13.3072 18.7805 12.2547C18.5524 12.1227 18.3042 11.9926 18.2282 11.9666C18.0461 11.9026 17.786 11.8885 17.5959 11.9306Z" fill="white"/>
<path d="M14.8245 15.9145C13.684 17.7873 12.2313 19.4902 10.4724 21.0149C9.77412 21.6212 9.17183 22.0954 7.8412 23.0899C6.56059 24.0463 6.35049 24.2044 6.34449 24.2244C6.33049 24.2604 7.08284 25.1028 7.61509 25.6471C8.44949 26.5015 9.1118 27.1098 9.9482 27.7921C10.1123 27.9261 10.2583 28.0362 10.2724 28.0362C10.2884 28.0362 11.2108 27.1498 12.3253 26.0653C14.8125 23.6461 14.8605 23.6001 14.8165 23.6741C14.7985 23.7061 14.1082 24.9547 13.2858 26.4454C11.8371 29.0667 11.7891 29.1587 11.8271 29.1907C11.8471 29.2088 12.0692 29.3568 12.3193 29.5189C15.1487 31.3578 18.3242 32.7484 22.268 33.879C22.9764 34.0811 23.7247 34.2792 23.7367 34.2672C23.7407 34.2631 23.7367 34.1691 23.7267 34.0591C23.6727 33.4007 23.6867 32.3502 23.7607 31.5679C23.9668 29.3688 24.6271 27.1178 25.8297 24.5145C25.9218 24.3164 26.1759 23.8002 26.394 23.366C26.6121 22.9318 26.7882 22.5756 26.7842 22.5716C26.7782 22.5656 26.2019 22.2335 22.8383 20.2925C21.0895 19.2821 19.5167 18.3756 19.3466 18.2776C19.1766 18.1775 18.1261 17.5712 17.0135 16.9289C15.901 16.2866 14.9766 15.7564 14.9606 15.7504C14.9406 15.7424 14.9005 15.7904 14.8245 15.9145Z" fill="white"/>
</svg>
