<svg width="40" height="40" viewBox="0 0 40 40" fill="none" xmlns="http://www.w3.org/2000/svg">
<path d="M24.1071 9.99717C23.8094 10.0791 23.4557 10.2431 23.2486 10.3941C22.8086 10.7219 9.38797 22.7232 9.25855 22.9001C8.96089 23.3229 8.91775 23.8923 9.14208 24.3496C9.21973 24.5049 9.79779 25.1822 10.9108 26.4332L12.5673 28.2882L11.7693 28.3098C10.9927 28.3313 10.9669 28.3356 10.8849 28.4349C10.7727 28.5729 10.7814 28.767 10.9108 28.8921L11.0143 29H16.7863C22.0234 29 23.3564 28.9784 23.5851 28.8921C23.6886 28.849 23.6843 28.5686 23.5764 28.4349L23.4945 28.3313L21.4367 28.3098L19.3833 28.2882L21.4885 26.4116C22.6446 25.3806 25.0993 23.1934 26.9413 21.5498C28.7834 19.9062 30.3709 18.4697 30.4701 18.3619C31.156 17.581 31.2595 16.3473 30.716 15.4241C30.5262 15.1049 26.5444 10.6443 26.264 10.4415C25.9664 10.2258 25.6428 10.0705 25.3322 9.99717C24.9957 9.91952 24.4004 9.91952 24.1071 9.99717ZM21.2512 19.4274C22.9552 21.3342 24.3443 22.9087 24.3357 22.926C24.3314 22.9432 22.9768 24.1598 21.3289 25.6308L18.3307 28.3098L15.9149 28.3054H13.4991L11.6657 26.2391C10.5096 24.9406 9.80211 24.108 9.75465 23.9958C9.65975 23.7845 9.68132 23.5256 9.80211 23.3401C9.90564 23.1805 18.0589 15.9245 18.1107 15.9418C18.1366 15.9504 19.5516 17.5163 21.2512 19.4274Z" fill="white"/>
<path d="M24.3183 28.3529C24.1199 28.4349 24.0638 28.7627 24.2277 28.9137C24.3097 28.9871 24.3787 29 24.7454 29C25.1423 29 25.1811 28.9914 25.276 28.8922C25.4184 28.7498 25.4141 28.5902 25.2588 28.4349C25.138 28.3141 25.1121 28.3098 24.7713 28.3141C24.5728 28.3141 24.3701 28.3313 24.3183 28.3529Z" fill="white"/>
<circle cx="20" cy="20" r="19" stroke="white" stroke-width="2"/>
</svg>
